# xmcd CD database file
#
# Track frame offsets:
#	150
#	15757
#	29423
#	39997
#	55920
#	66747
#	76073
#	92623
#	110897
#	123397
#	134878
#	152858
#	162217
#	174948
#	183242
#	194653
#	206936
#	215853
#
# Disc length: 3034 seconds
#
# Revision: 0
# Processed by: cddbd v1.5.2PL0 Copyright (c) Steve Scherf et al.
# Submitted via: CDex 1.51
#
DISCID=090bd812
DTITLE=Willie Nelson - 18 Greatest
DYEAR=2006
DGENRE=Country
TTITLE0=mamas don't let your babies
TTITLE1=heatbreak hotel
TTITLE2=blue yes crying in the rain
TTITLE3=reasons to quit
TTITLE4=touch me
TTITLE5=something to brag about
TTITLE6=don't you ever get tired
TTITLE7=night life
TTITLE8=half a man
TTITLE9=just out of reach
TTITLE10=crazy
TTITLE11=one step beyond
TTITLE12=I just don't unerstand
TTITLE13=you wouldn't even cross
TTITLE14=is there something on your mind
TTITLE15=shelter of your arms
TTITLE16=why are you picking on me
TTITLE17=I hope so
EXTD=YEAR: 2006
EXTT0=
EXTT1=
EXTT2=
EXTT3=
EXTT4=
EXTT5=
EXTT6=
EXTT7=
EXTT8=
EXTT9=
EXTT10=
EXTT11=
EXTT12=
EXTT13=
EXTT14=
EXTT15=
EXTT16=
EXTT17=
PLAYORDER=
